# Blender v2.93.4 OBJ File: 'untitled.blend'
# www.blender.org
o BigL
v -1.000000 -1.000000 0.990701
v -1.000000 4.425877 0.990701
v -1.000000 -1.000000 -1.009299
v -1.000000 4.425877 -1.009299
v 1.000000 -1.000000 0.990701
v 1.000000 4.425877 0.990701
v 1.000000 -1.000000 -1.009299
v 1.000000 4.425877 -1.009299
v -1.000000 0.996044 0.990701
v -1.000000 0.996044 -1.009299
v 1.000000 0.996044 -1.009299
v 1.000000 0.996044 0.990701
v 3.696948 0.996044 -1.009299
v 3.696948 -1.000000 -1.009299
v 3.696948 -1.000000 0.990701
v 3.696948 0.996044 0.990701
v -1.000000 0.996044 -3.987820
v -1.000000 -1.000000 -3.987820
v 1.000000 -1.000000 -3.987820
v 1.000000 0.996044 -3.987820
vt 0.000000 0.000000
vt 0.161233 0.276501
vt 0.000000 0.276501
vt 0.701118 0.713917
vt 0.539885 0.437416
vt 0.701118 0.437416
vt 0.539885 0.713917
vt 0.378652 0.437416
vt 0.618770 0.000000
vt 0.780003 0.276501
vt 0.618770 0.276501
vt 0.161233 0.677534
vt 0.000000 0.838767
vt 0.000000 0.677534
vt 0.941236 0.000000
vt 0.780003 0.161233
vt 0.780003 0.000000
vt 0.780003 0.437416
vt 0.618770 0.437416
vt 0.539885 0.931336
vt 0.700799 0.713917
vt 0.700799 0.931336
vt 0.701118 0.677534
vt 0.862351 0.437416
vt 0.862351 0.677534
vt 0.161233 0.437416
vt 0.000000 0.437416
vt 0.780003 0.322466
vt 0.940917 0.161233
vt 0.940917 0.322466
vt 0.378652 0.931336
vt 0.539885 0.713917
vt 0.401351 0.276501
vt 0.378652 0.838767
vt 0.161233 0.838767
vt 0.000000 1.000000
vt 0.160914 0.838767
vt 0.160914 1.000000
vt 0.401351 0.437416
vt 0.862032 0.677534
vt 0.701118 0.917652
vt 0.161233 0.437416
vt 0.161233 0.000000
vt 0.378652 0.713917
vt 0.780003 0.000000
vt 0.941236 0.161233
vt 0.701118 0.437416
vt 0.780003 0.161233
vt 0.378652 0.713917
vt 0.401351 0.437416
vt 0.378652 0.677534
vt 0.000000 0.838767
vt 0.401351 0.276501
vt 0.862032 0.917652
vt 0.000000 0.437416
vn -1.0000 0.0000 0.0000
vn 0.0000 0.0000 -1.0000
vn 1.0000 0.0000 0.0000
vn 0.0000 0.0000 1.0000
vn 0.0000 -1.0000 0.0000
vn 0.0000 1.0000 0.0000
s off
f 2/1/1 10/2/1 9/3/1
f 4/4/2 11/5/2 10/6/2
f 8/7/3 12/8/3 11/5/3
f 6/9/4 9/10/4 12/11/4
f 7/12/5 1/13/5 3/14/5
f 4/15/6 6/16/6 8/17/6
f 12/11/4 1/18/4 5/19/4
f 11/20/2 14/21/2 7/22/2
f 11/23/6 17/24/6 10/25/6
f 9/3/1 3/26/1 1/27/1
f 13/28/3 15/29/3 14/30/3
f 12/31/6 13/32/6 11/20/6
f 5/19/4 16/33/4 12/11/4
f 7/12/5 15/34/5 5/35/5
f 17/36/2 19/37/2 18/38/2
f 10/2/1 18/39/1 3/26/1
f 7/40/3 20/41/3 11/23/3
f 3/14/5 19/42/5 7/12/5
f 2/1/1 4/43/1 10/2/1
f 4/4/2 8/7/2 11/5/2
f 8/7/3 6/44/3 12/8/3
f 6/9/4 2/45/4 9/10/4
f 7/12/5 5/35/5 1/13/5
f 4/15/6 2/46/6 6/16/6
f 12/11/4 9/10/4 1/18/4
f 11/20/2 13/32/2 14/21/2
f 11/23/6 20/47/6 17/24/6
f 9/3/1 10/2/1 3/26/1
f 13/28/3 16/48/3 15/29/3
f 12/31/6 16/49/6 13/32/6
f 5/19/4 15/50/4 16/33/4
f 7/12/5 14/51/5 15/34/5
f 17/36/2 20/52/2 19/37/2
f 10/2/1 17/53/1 18/39/1
f 7/40/3 19/54/3 20/41/3
f 3/14/5 18/55/5 19/42/5
o Cube
v -1.558784 -1.558784 1.558784
v -1.558784 1.558784 1.558784
v -1.558784 -1.558784 -1.558784
v -1.558784 1.558784 -1.558784
v 1.558784 -1.558784 1.558784
v 1.558784 1.558784 1.558784
v 1.558784 -1.558784 -1.558784
v 1.558784 1.558784 -1.558784
vt 0.625000 0.000000
vt 0.375000 0.250000
vt 0.375000 0.000000
vt 0.625000 0.250000
vt 0.375000 0.500000
vt 0.625000 0.500000
vt 0.375000 0.750000
vt 0.625000 0.750000
vt 0.375000 1.000000
vt 0.125000 0.750000
vt 0.125000 0.500000
vt 0.875000 0.500000
vt 0.625000 1.000000
vt 0.875000 0.750000
vn -1.0000 0.0000 0.0000
vn 0.0000 0.0000 -1.0000
vn 1.0000 0.0000 0.0000
vn 0.0000 0.0000 1.0000
vn 0.0000 -1.0000 0.0000
vn 0.0000 1.0000 0.0000
s off
f 22/56/7 23/57/7 21/58/7
f 24/59/8 27/60/8 23/57/8
f 28/61/9 25/62/9 27/60/9
f 26/63/10 21/64/10 25/62/10
f 27/60/11 21/65/11 23/66/11
f 24/67/12 26/63/12 28/61/12
f 22/56/7 24/59/7 23/57/7
f 24/59/8 28/61/8 27/60/8
f 28/61/9 26/63/9 25/62/9
f 26/63/10 22/68/10 21/64/10
f 27/60/11 25/62/11 21/65/11
f 24/67/12 22/69/12 26/63/12
o Floor
v 19.895472 -2.123086 -19.895472
v 19.895472 -1.901976 -19.895472
v 19.895472 -2.123086 19.895472
v 19.895472 -1.901976 19.895472
v -19.895472 -2.123086 -19.895472
v -19.895472 -1.901976 -19.895472
v -19.895472 -2.123086 19.895472
v -19.895472 -1.901976 19.895472
vt 0.489898 0.491461
vt 0.489898 0.008539
vt 0.489898 0.491461
vt 0.489898 0.008539
vt 0.006977 0.008539
vt 0.006977 0.008539
vt 0.006977 0.491461
vt 0.006977 0.491461
vn 1.0000 0.0000 0.0000
vn 0.0000 0.0000 1.0000
vn -1.0000 0.0000 0.0000
vn 0.0000 0.0000 -1.0000
vn 0.0000 -1.0000 0.0000
vn 0.0000 1.0000 0.0000
s off
f 30/70/13 31/71/13 29/72/13
f 32/73/14 35/74/14 31/71/14
f 36/75/15 33/76/15 35/74/15
f 34/77/16 29/72/16 33/76/16
f 35/74/17 29/72/17 31/71/17
f 32/73/18 34/77/18 36/75/18
f 30/70/13 32/73/13 31/71/13
f 32/73/14 36/75/14 35/74/14
f 36/75/15 34/77/15 33/76/15
f 34/77/16 30/70/16 29/72/16
f 35/74/17 33/76/17 29/72/17
f 32/73/18 30/70/18 34/77/18
o Wall
v 19.895473 19.895473 -0.110554
v 19.895473 19.895473 0.110556
v 19.895473 -19.895473 -0.110556
v 19.895473 -19.895473 0.110554
v -19.895473 19.895473 -0.110554
v -19.895473 19.895473 0.110556
v -19.895473 -19.895473 -0.110556
v -19.895473 -19.895473 0.110554
vt 0.990085 0.993210
vt 0.990085 0.503665
vt 0.990085 0.993210
vt 0.990085 0.503665
vt 0.500540 0.503665
vt 0.500540 0.503665
vt 0.500540 0.993210
vt 0.500540 0.993210
vn 1.0000 0.0000 0.0000
vn 0.0000 -1.0000 0.0000
vn -1.0000 -0.0000 0.0000
vn 0.0000 1.0000 0.0000
vn 0.0000 0.0000 -1.0000
vn 0.0000 -0.0000 1.0000
s off
f 38/78/19 39/79/19 37/80/19
f 40/81/20 43/82/20 39/79/20
f 44/83/21 41/84/21 43/82/21
f 42/85/22 37/80/22 41/84/22
f 43/82/23 37/80/23 39/79/23
f 40/81/24 42/85/24 44/83/24
f 38/78/19 40/81/19 39/79/19
f 40/81/20 44/83/20 43/82/20
f 44/83/21 42/85/21 41/84/21
f 42/85/22 38/78/22 37/80/22
f 43/82/23 41/84/23 37/80/23
f 40/81/24 38/78/24 42/85/24
